<svg id="logo" class="logo" data-name="logo" xmlns="http://www.w3.org/2000/svg" viewBox="0 0 505.28 74.4"><defs><style>.cls-1{fill:#fff;}</style></defs><path class="cls-1" d="M381.64,68.63H368.05V0H378l32,40.77V0h13.61V69.31h-11l-31-39.76ZM46.84,29.9a20.71,20.71,0,0,1-4.51,6.7,21.7,21.7,0,0,1-6.7,4.46,20.15,20.15,0,0,1-8.11,1.65h-14V68.35L.05,74.4V.68H27.52a20,20,0,0,1,8.06,1.65,21.61,21.61,0,0,1,6.65,4.51,22.11,22.11,0,0,1,4.56,6.65,19.78,19.78,0,0,1,1.7,8.16A20.88,20.88,0,0,1,46.84,29.9ZM35,21.65a6.85,6.85,0,0,0-2.43-5.29Q30.14,14.17,25,14.17H13.54V29.32H25q5.15,0,7.57-2.28A7.16,7.16,0,0,0,35,21.65Zm71.74,19.41a16.86,16.86,0,0,1-1.07,6.17,13.94,13.94,0,0,1-2.86,4.66,12.61,12.61,0,0,1-4.13,2.91,12,12,0,0,1-9.7,0,12.61,12.61,0,0,1-4.13-2.91A13.94,13.94,0,0,1,82,47.23a16.86,16.86,0,0,1-1.07-6.17V.68H67.52V42.81a28.62,28.62,0,0,0,1.94,10.68,24.93,24.93,0,0,0,5.39,8.35,24.48,24.48,0,0,0,8.3,5.48,29.65,29.65,0,0,0,21.36,0,25.09,25.09,0,0,0,8.35-5.48,24.43,24.43,0,0,0,5.43-8.35,28.43,28.43,0,0,0,1.95-10.68V.68h-13.5ZM194.53,44a15.69,15.69,0,0,1,.58,4.17A25.39,25.39,0,0,1,194,55.58a17.18,17.18,0,0,1-3.78,6.55,19.34,19.34,0,0,1-7.08,4.71,29.22,29.22,0,0,1-11,1.79H148.28V.68h23.58A21.28,21.28,0,0,1,180,2.23a22,22,0,0,1,6.59,4.13,19,19,0,0,1,4.41,6,16.3,16.3,0,0,1,1.6,7,19.63,19.63,0,0,1-1.5,7.13,15,15,0,0,1-5.64,6.75,16.07,16.07,0,0,1,4.35,2.91A16.87,16.87,0,0,1,194.53,44Zm-32.76-16.8h8.59a9.08,9.08,0,0,0,5.77-1.7A5.41,5.41,0,0,0,178.32,21a6.27,6.27,0,0,0-2.19-4.81,8.26,8.26,0,0,0-5.77-2h-8.59Zm19.07,21a8.34,8.34,0,0,0-.48-2.81A5.77,5.77,0,0,0,178.71,43a8.78,8.78,0,0,0-3.21-1.65,17.32,17.32,0,0,0-5.05-.63h-8.68V55.14h8.68c3.69,0,6.35-.69,8-2.09A6.28,6.28,0,0,0,180.84,48.15ZM318.89,0,350,69.71l-16.73-2.16-5.08-11.34H302.25c-.84,1.94-1.77,4-2.77,6.26s-1.57,3.35-2.35,5.23l-16.44,1.87L311.33,0Zm3.94,44.34L315.16,27l-7.63,17.35Zm156-.66h11.89v9A23.6,23.6,0,0,1,485.25,55a20.88,20.88,0,0,1-5.82.83,20.55,20.55,0,0,1-8.21-1.65A21.15,21.15,0,0,1,460,43a20.55,20.55,0,0,1-1.65-8.21A20.88,20.88,0,0,1,460,26.5a21.6,21.6,0,0,1,4.51-6.79,21,21,0,0,1,6.7-4.57,20.55,20.55,0,0,1,8.21-1.65,19.67,19.67,0,0,1,8.3,1.9,37.43,37.43,0,0,1,8.8,6.17l8.75-9.89a42.89,42.89,0,0,0-12.46-8.85A33.32,33.32,0,0,0,479.43,0a34.12,34.12,0,0,0-12.82,2.48,34.21,34.21,0,0,0-18.78,18,33.89,33.89,0,0,0-3,14.32,34.87,34.87,0,0,0,2.43,12.82,34.13,34.13,0,0,0,6.94,11,34.84,34.84,0,0,0,10.92,7.76,33.57,33.57,0,0,0,14.28,3,32.34,32.34,0,0,0,13.15-2.62,43.68,43.68,0,0,0,11.5-7.57V30.19H488.22ZM232.49,6.53,219,.68V68.63h43.55L268,55.14H232.49Z"/></svg>